<svg xmlns="http://www.w3.org/2000/svg" width="355" height="142" viewBox="0 0 355 142">
<g>
<path d="M 67.28 95.13 C62.05,97.22 59.56,97.47 41.25,97.79 L 21.00 98.15 L 21.00 87.15 L 33.93 87.72 C52.64,88.55 69.14,85.41 83.35,78.29 C86.02,76.96 88.45,76.12 88.76,76.43 C89.60,77.26 81.95,86.01 77.19,89.67 C74.92,91.41 70.46,93.87 67.28,95.13 Z" fill="rgb(11,154,244)"/>
<path d="M 119.45 139.15 C119.98,139.62 113.75,140.00 105.38,140.00 L 90.36 140.00 L 78.74 127.65 L 67.13 115.31 L 75.82 115.38 C80.59,115.41 85.71,115.12 87.18,114.72 C89.58,114.07 91.41,115.30 104.18,126.14 C112.06,132.83 118.93,138.68 119.45,139.15 ZM 58.78 127.28 C58.62,134.19 58.07,139.47 57.50,139.65 C55.86,140.15 48.66,136.44 46.32,133.88 C45.12,132.57 43.65,130.23 43.07,128.68 C42.05,126.01 41.50,103.00 42.45,103.00 C42.70,103.00 45.02,104.43 47.60,106.17 C50.19,107.92 54.82,110.39 57.90,111.66 C62.63,113.62 63.15,114.08 61.28,114.60 C59.16,115.19 59.05,115.79 58.78,127.28 ZM 198.78 104.68 C196.52,106.94 194.98,107.47 189.78,107.80 C186.32,108.01 183.16,107.85 182.75,107.43 C182.34,107.01 182.00,101.57 182.00,95.33 L 182.00 84.00 L 189.33 84.00 C195.91,84.00 196.90,84.26 199.08,86.58 C201.12,88.76 201.50,90.16 201.50,95.56 C201.50,101.19 201.17,102.28 198.78,104.68 ZM 229.75 112.25 C226.56,116.40 215.11,114.46 215.02,109.75 C214.99,108.60 219.46,108.86 220.68,110.08 C222.59,111.99 226.47,110.74 226.84,108.11 C227.12,106.13 226.86,105.85 225.34,106.47 C221.35,108.11 220.33,108.04 217.71,105.99 C215.42,104.18 215.00,103.10 215.00,98.93 C215.00,92.55 217.65,89.49 222.35,90.43 C224.08,90.78 226.74,91.04 228.25,91.01 L 231.00 90.97 L 231.00 100.79 C231.00,107.12 230.55,111.20 229.75,112.25 ZM 151.66 65.43 C146.86,70.23 135.00,67.68 135.00,61.85 C135.00,59.37 138.20,59.46 140.50,62.00 C142.64,64.36 146.25,64.61 147.99,62.51 C149.93,60.17 148.62,58.58 143.63,57.25 C131.59,54.02 132.23,44.00 144.48,44.00 C149.19,44.00 150.18,44.34 151.56,46.46 C154.07,50.28 150.90,52.99 148.00,49.50 C147.32,48.67 145.20,48.00 143.30,48.00 C137.90,48.00 139.38,50.93 145.84,53.04 C152.18,55.10 152.77,55.61 153.59,59.71 C154.10,62.26 153.73,63.36 151.66,65.43 ZM 170.06 66.97 C166.31,68.98 161.09,67.75 158.25,64.18 C156.93,62.52 156.58,57.25 157.62,54.54 C158.41,52.49 163.17,50.00 166.32,50.00 C169.66,50.00 173.72,53.45 174.49,56.94 C175.23,60.32 172.99,65.40 170.06,66.97 ZM 248.06 66.97 C244.31,68.98 239.09,67.75 236.25,64.18 C234.43,61.90 234.72,55.57 236.76,53.05 C237.82,51.73 240.10,50.66 242.51,50.34 C249.94,49.35 254.96,56.32 251.55,62.90 C250.69,64.57 249.11,66.40 248.06,66.97 ZM 264.84 106.76 C263.01,108.59 258.55,108.27 256.65,106.17 C253.17,102.32 255.42,98.67 261.93,97.63 C266.88,96.84 267.71,94.00 263.00,94.00 C261.35,94.00 260.00,94.45 260.00,95.00 C260.00,96.38 257.28,96.26 256.40,94.84 C254.37,91.55 264.61,88.45 268.24,91.25 C270.42,92.93 271.18,107.11 269.13,107.79 C268.38,108.04 267.39,107.63 266.93,106.88 C266.25,105.79 265.83,105.77 264.84,106.76 ZM 296.44 106.06 C293.57,109.23 286.18,108.08 284.07,104.12 C280.80,98.02 284.74,90.00 291.00,90.00 C294.82,90.00 299.00,93.89 299.00,97.45 C299.00,99.87 298.73,100.00 293.50,100.00 C289.34,100.00 288.00,100.36 288.00,101.46 C288.00,103.82 291.55,105.24 293.02,103.48 C293.69,102.67 294.84,102.00 295.56,102.00 C297.83,102.00 298.27,104.04 296.44,106.06 ZM 289.13 65.87 C285.16,69.84 277.61,67.87 276.12,62.47 C274.88,57.98 275.80,54.30 278.76,51.98 C283.72,48.07 289.82,50.61 291.39,57.25 L 292.04 60.00 L 286.02 60.00 C279.58,60.00 278.84,60.64 282.00,63.50 C283.90,65.22 284.09,65.23 285.93,63.57 C287.32,62.31 288.33,62.09 289.56,62.78 C291.13,63.65 291.10,63.90 289.13,65.87 ZM 261.00 60.99 C260.63,65.79 260.10,67.56 258.95,67.78 C256.41,68.26 256.00,67.04 256.00,58.95 C256.00,52.14 256.23,51.17 257.95,50.72 C259.03,50.44 260.06,50.68 260.25,51.25 C260.48,51.95 261.30,51.91 262.73,51.14 C269.06,47.76 272.00,50.75 272.00,60.57 C272.00,67.33 271.82,68.00 270.00,68.00 C268.23,68.00 268.00,67.33 267.98,62.25 C267.97,55.43 267.10,53.71 263.89,54.16 C261.71,54.47 261.46,55.08 261.00,60.99 ZM 307.69 65.83 C304.28,69.03 297.26,68.35 294.79,64.59 C293.56,62.72 297.28,62.25 300.16,63.91 C302.24,65.10 303.19,65.21 304.07,64.33 C305.75,62.65 304.50,61.32 300.54,60.57 C297.45,59.99 294.00,56.93 294.00,54.78 C294.00,52.60 298.27,50.00 301.85,50.00 C305.33,50.00 309.00,52.22 309.00,54.33 C309.00,55.39 306.15,55.11 304.12,53.84 C302.17,52.62 299.00,53.27 299.00,54.89 C299.00,55.41 300.46,56.15 302.25,56.52 C309.76,58.08 311.94,61.83 307.69,65.83 ZM 314.83 106.40 C313.58,107.28 311.18,108.00 309.50,108.00 C306.46,108.00 302.00,105.65 302.00,104.05 C302.00,102.38 305.19,102.04 306.70,103.56 C308.52,105.37 312.50,105.10 312.50,103.16 C312.50,102.42 310.25,101.07 307.50,100.16 C303.35,98.78 302.45,98.05 302.19,95.85 C301.56,90.39 310.83,87.83 315.24,92.24 C317.34,94.34 317.36,94.50 315.61,94.84 C314.58,95.04 312.70,94.64 311.44,93.97 C309.14,92.74 305.07,93.39 306.43,94.77 C306.82,95.17 309.25,96.18 311.82,97.00 C315.96,98.33 316.54,98.87 316.81,101.65 C317.04,104.02 316.54,105.21 314.83,106.40 ZM 220.93 65.37 C217.87,69.25 210.43,68.54 208.07,64.12 C204.67,57.78 208.74,50.00 215.45,50.00 C219.13,50.00 223.61,53.21 222.48,55.04 C221.67,56.35 218.00,56.26 218.00,54.93 C218.00,54.35 216.76,54.01 215.25,54.18 C212.70,54.48 212.50,54.83 212.50,59.00 C212.50,62.99 212.77,63.54 214.91,63.84 C216.36,64.04 217.68,63.54 218.21,62.59 C219.14,60.94 223.00,60.35 223.00,61.87 C223.00,62.34 222.07,63.92 220.93,65.37 ZM 196.80 66.80 C195.35,68.25 192.13,68.31 189.75,66.92 C188.33,66.09 188.00,64.49 188.00,58.45 C188.00,51.67 188.18,51.00 190.00,51.00 C191.78,51.00 192.00,51.67 192.00,56.96 C192.00,61.85 192.35,63.12 193.94,63.97 C196.75,65.47 199.00,61.82 199.00,55.78 C199.00,51.67 199.28,51.00 201.00,51.00 C202.84,51.00 203.00,51.67 203.00,59.50 C203.00,68.13 202.16,69.76 199.20,66.80 C198.27,65.87 197.73,65.87 196.80,66.80 ZM 187.00 88.00 L 187.00 104.00 L 190.00 104.00 C194.30,104.00 197.00,100.89 197.00,95.93 C197.00,89.79 195.64,88.00 190.96,88.00 ZM 253.00 106.00 C253.00,107.45 252.33,108.00 250.57,108.00 C246.63,108.00 245.00,105.49 245.00,99.43 C245.00,96.44 244.55,94.00 244.00,94.00 C243.45,94.00 243.00,93.10 243.00,92.00 C243.00,90.90 243.45,90.00 244.00,90.00 C244.55,90.00 245.00,89.34 245.00,88.54 C245.00,87.26 247.83,85.00 249.43,85.00 C249.75,85.00 250.00,86.10 250.00,87.45 C250.00,88.80 250.79,90.37 251.75,90.95 C253.42,91.95 253.42,92.06 251.75,93.36 C249.43,95.16 249.23,104.00 251.50,104.00 C252.33,104.00 253.00,104.89 253.00,106.00 ZM 182.78 55.74 C182.55,65.39 182.23,67.53 180.95,67.77 C180.10,67.94 179.09,67.75 178.70,67.37 C178.32,66.98 178.00,61.57 178.00,55.33 L 178.00 44.00 L 183.06 44.00 ZM 279.00 96.00 C279.00,105.33 278.70,108.00 277.67,108.00 C275.26,108.00 275.00,106.78 275.00,95.33 C275.00,84.67 275.12,84.00 277.00,84.00 C278.89,84.00 279.00,84.67 279.00,96.00 ZM 210.79 99.24 C210.56,105.73 210.17,107.54 208.95,107.77 C206.40,108.26 206.00,107.04 206.00,98.83 C206.00,91.11 206.04,91.00 208.54,91.00 C211.08,91.00 211.08,91.01 210.79,99.24 ZM 163.05 62.57 C165.70,65.75 170.00,63.49 170.00,58.92 C170.00,55.66 167.90,53.74 164.81,54.17 C163.01,54.43 162.43,55.23 162.18,57.82 C162.01,59.64 162.40,61.78 163.05,62.57 ZM 241.05 62.57 C243.70,65.75 248.00,63.49 248.00,58.92 C248.00,55.66 245.90,53.74 242.81,54.17 C241.01,54.43 240.43,55.23 240.18,57.82 C240.01,59.64 240.40,61.78 241.05,62.57 ZM 231.00 59.50 C231.00,67.33 230.84,68.00 229.00,68.00 C227.16,68.00 227.00,67.33 227.00,59.50 C227.00,51.67 227.16,51.00 229.00,51.00 C230.84,51.00 231.00,51.67 231.00,59.50 ZM 240.00 99.50 C240.00,105.92 239.67,108.00 238.67,108.00 C236.34,108.00 236.00,106.84 236.00,98.83 C236.00,91.67 236.17,91.00 238.00,91.00 C239.84,91.00 240.00,91.67 240.00,99.50 ZM 219.97 101.95 C220.58,103.08 221.94,104.00 223.00,104.00 C226.93,104.00 228.27,96.82 224.75,94.61 C221.01,92.26 217.60,97.51 219.97,101.95 ZM 260.32 103.40 C261.05,105.29 263.12,105.48 264.80,103.80 C266.56,102.04 266.26,100.00 264.25,100.02 C261.51,100.04 259.65,101.64 260.32,103.40 ZM 280.62 57.20 C280.90,57.64 282.47,58.00 284.13,58.00 C286.46,58.00 287.07,57.60 286.81,56.25 C286.41,54.14 282.05,53.30 280.93,55.11 C280.49,55.82 280.35,56.76 280.62,57.20 ZM 288.19 96.25 C287.93,97.60 288.54,98.00 290.87,98.00 C294.22,98.00 295.27,97.05 294.07,95.11 C292.95,93.30 288.59,94.14 288.19,96.25 ZM 210.81 85.74 C210.46,87.56 207.91,88.57 206.70,87.37 C205.13,85.80 206.13,84.00 208.57,84.00 C210.48,84.00 211.06,84.45 210.81,85.74 ZM 231.00 46.00 C231.00,47.33 230.33,48.00 229.00,48.00 C227.67,48.00 227.00,47.33 227.00,46.00 C227.00,44.67 227.67,44.00 229.00,44.00 C230.33,44.00 231.00,44.67 231.00,46.00 ZM 240.00 86.00 C240.00,87.93 238.04,88.71 236.67,87.33 C235.29,85.96 236.07,84.00 238.00,84.00 C239.33,84.00 240.00,84.67 240.00,86.00 Z" fill="rgb(38,43,108)"/>
<path d="M 15.50 133.00 C15.87,133.60 14.51,134.00 12.06,134.00 C9.83,134.00 8.00,133.55 8.00,133.00 C8.00,132.45 9.55,132.00 11.44,132.00 C13.33,132.00 15.16,132.45 15.50,133.00 ZM 159.00 9.94 C159.00,11.01 158.55,12.16 158.00,12.50 C157.43,12.85 157.00,12.01 157.00,10.56 C157.00,9.15 157.45,8.00 158.00,8.00 C158.55,8.00 159.00,8.87 159.00,9.94 ZM 159.00 20.56 C159.00,21.35 158.55,22.00 158.00,22.00 C157.45,22.00 157.00,21.07 157.00,19.94 C157.00,18.81 157.45,18.16 158.00,18.50 C158.55,18.84 159.00,19.77 159.00,20.56 Z" fill="rgb(120,117,148)"/>
<path d="M 15.00 86.00 C15.00,86.55 13.57,87.00 11.83,87.00 C10.09,87.00 8.96,86.70 9.32,86.34 C9.69,85.98 9.47,85.06 8.83,84.30 C7.97,83.26 7.97,82.63 8.84,81.76 C9.72,80.88 10.00,81.13 10.00,82.80 C10.00,84.48 10.59,85.00 12.50,85.00 C13.88,85.00 15.00,85.45 15.00,86.00 Z" fill="rgb(187,180,210)"/>
<path d="M 95.00 47.09 C95.00,47.59 93.99,47.91 92.75,47.81 C91.51,47.70 87.68,47.45 84.23,47.26 L 77.96 46.90 L 75.80 42.31 C70.76,31.58 62.65,26.93 47.75,26.21 L 38.00 25.73 L 38.00 33.87 C38.00,38.44 37.58,42.00 37.03,42.00 C35.75,42.00 28.78,32.61 26.11,27.28 C24.08,23.24 21.00,12.99 21.00,10.29 C21.00,8.75 46.19,8.51 57.36,9.95 C69.63,11.53 80.77,18.42 87.54,28.63 C90.73,33.43 95.00,44.00 95.00,47.09 ZM 141.00 18.44 C141.00,19.78 140.55,21.16 140.00,21.50 C139.42,21.86 139.00,20.84 139.00,19.06 C139.00,16.33 138.68,16.00 136.00,16.00 C134.35,16.00 133.00,15.55 133.00,15.00 C133.00,14.45 134.35,14.00 136.00,14.00 C138.67,14.00 139.00,13.67 139.00,11.00 C139.00,9.35 139.45,8.00 140.00,8.00 C140.55,8.00 141.00,9.35 141.00,11.00 C141.00,13.53 141.39,14.00 143.50,14.00 C144.88,14.00 146.00,14.45 146.00,15.00 C146.00,15.55 144.88,16.00 143.50,16.00 C141.52,16.00 141.00,16.50 141.00,18.44 ZM 180.00 18.44 C180.00,19.78 179.55,21.16 179.00,21.50 C178.42,21.86 178.00,20.84 178.00,19.06 C178.00,16.33 177.68,16.00 175.00,16.00 C173.35,16.00 172.00,15.55 172.00,15.00 C172.00,14.45 173.35,14.00 175.00,14.00 C177.67,14.00 178.00,13.67 178.00,11.00 C178.00,9.35 178.45,8.00 179.00,8.00 C179.55,8.00 180.00,9.35 180.00,11.00 C180.00,13.53 180.39,14.00 182.50,14.00 C183.88,14.00 185.00,14.45 185.00,15.00 C185.00,15.55 183.88,16.00 182.50,16.00 C180.52,16.00 180.00,16.50 180.00,18.44 ZM 159.00 19.00 C159.00,19.36 158.98,19.71 158.94,20.03 C158.80,19.39 158.43,18.77 158.00,18.50 C157.51,18.20 157.11,18.67 157.02,19.56 C157.01,19.38 157.00,19.19 157.00,19.00 C157.00,16.47 156.61,16.00 154.50,16.00 C153.12,16.00 152.00,15.55 152.00,15.00 C152.00,14.45 153.12,14.00 154.50,14.00 C156.61,14.00 157.00,13.53 157.00,11.00 C157.00,10.92 157.00,10.84 157.00,10.77 C157.04,12.09 157.46,12.83 158.00,12.50 C158.48,12.20 158.88,11.30 158.98,10.37 C158.99,10.57 159.00,10.78 159.00,11.00 C159.00,13.67 159.33,14.00 162.00,14.00 C163.65,14.00 165.00,14.45 165.00,15.00 C165.00,15.55 163.65,16.00 162.00,16.00 C159.33,16.00 159.00,16.33 159.00,19.00 Z" fill="rgb(240,11,145)"/>
<path d="M 59.15 118.20 C59.44,115.32 59.98,114.96 61.28,114.60 C63.15,114.08 62.63,113.62 57.90,111.66 C54.82,110.39 50.19,107.92 47.60,106.17 C45.11,104.49 42.87,103.11 42.49,103.01 L 42.50 102.50 L 52.50 101.89 C58.00,101.55 63.85,100.70 65.50,100.00 C69.68,98.21 87.43,97.05 100.20,97.73 L 110.90 98.30 L 109.44 101.11 C107.59,104.69 100.13,110.40 94.48,112.56 L 90.09 114.24 L 97.81 120.78 C90.66,114.89 89.11,114.20 87.18,114.72 C85.71,115.12 80.59,115.41 75.82,115.38 L 67.13 115.31 L 78.74 127.65 L 85.08 134.39 L 78.50 127.51 C71.59,120.28 65.65,114.90 64.50,114.82 C64.36,114.81 64.23,114.80 64.10,114.79 C62.27,114.66 61.11,114.58 60.35,115.10 C59.69,115.55 59.35,116.47 59.15,118.20 ZM 58.51 75.83 C57.56,76.78 43.62,77.31 42.75,76.43 C42.34,76.01 42.00,70.09 42.00,63.27 L 42.00 50.87 L 45.25 51.19 C48.35,51.49 48.62,51.86 51.00,59.13 C52.38,63.32 54.77,68.65 56.32,70.97 C57.88,73.29 58.86,75.47 58.51,75.83 ZM 42.10 117.59 C42.25,121.77 42.51,125.72 42.83,127.67 C42.25,125.36 42.06,122.32 42.10,117.59 ZM 51.44 137.52 C53.98,138.91 56.59,139.93 57.50,139.65 C56.47,139.96 53.96,138.98 51.44,137.52 ZM 119.48 139.19 L 119.84 139.50 L 118.31 139.53 C119.09,139.43 119.51,139.31 119.48,139.19 ZM 93.68 140.00 L 90.50 140.06 L 90.44 140.00 ZM 43.61 129.88 C43.95,130.54 44.37,131.25 44.82,131.92 C44.34,131.26 43.94,130.60 43.61,129.88 Z" fill="rgb(251,174,5)"/>
<path d="M 109.81 100.41 L 110.90 98.30 L 100.20 97.73 C94.68,97.44 88.24,97.49 82.36,97.79 C87.46,97.24 91.08,95.63 93.63,92.84 C100.46,85.32 99.34,75.76 90.99,70.49 C87.26,68.14 86.24,68.00 73.02,68.00 L 59.00 68.00 L 59.00 71.95 C59.00,73.72 58.95,74.71 58.55,75.33 C58.39,74.49 57.53,72.77 56.32,70.97 C54.77,68.65 52.38,63.32 51.00,59.13 C48.62,51.86 48.35,51.49 45.25,51.19 L 42.00 50.87 L 66.72 51.19 C89.54,51.48 91.86,51.67 96.12,53.64 C102.46,56.57 108.64,62.39 111.82,68.44 C114.17,72.89 114.49,74.65 114.50,83.00 C114.50,91.95 114.31,92.83 111.17,98.27 C110.75,99.00 110.29,99.71 109.81,100.41 ZM 78.89 97.99 C74.30,98.31 70.30,98.78 67.70,99.35 C70.32,98.58 74.61,98.00 78.00,98.00 C78.30,98.00 78.60,98.00 78.89,97.99 ZM 48.61 76.87 C51.49,76.82 54.75,76.62 56.73,76.32 C56.44,76.39 56.11,76.45 55.75,76.52 C54.19,76.81 51.18,76.95 48.61,76.87 ZM 65.13 100.14 C63.10,100.81 57.65,101.58 52.50,101.89 L 42.50 102.50 L 52.50 101.88 C56.97,101.60 62.08,100.88 65.13,100.14 ZM 102.43 108.08 C99.96,109.96 97.26,111.50 94.48,112.56 C96.99,111.60 99.85,109.94 102.43,108.08 ZM 42.47 75.26 C42.56,75.92 42.65,76.33 42.75,76.43 C42.79,76.46 42.84,76.50 42.92,76.53 L 42.50 76.50 ZM 42.00 50.87 L 42.00 53.65 L 41.94 50.87 Z" fill="rgb(251,213,13)"/>
<path d="M 0.00 71.00 L 0.00 0.00 L 177.50 0.00 L 355.00 0.00 L 355.00 71.00 L 355.00 142.00 L 177.50 142.00 L 0.00 142.00 L 0.00 71.00 ZM 58.78 127.17 C59.08,114.12 58.94,114.44 64.50,114.82 C65.65,114.90 71.59,120.28 78.50,127.51 L 90.50 140.06 L 105.17 139.78 L 119.84 139.50 L 104.97 126.87 L 90.09 114.24 L 94.48 112.56 C101.23,109.98 107.50,104.61 111.17,98.27 C114.31,92.83 114.50,91.95 114.50,83.00 C114.49,74.65 114.17,72.89 111.82,68.44 C108.64,62.39 102.46,56.57 96.12,53.64 C91.86,51.67 89.54,51.48 66.72,51.19 L 41.94 50.87 L 42.22 63.69 L 42.50 76.50 L 47.50 76.81 C50.25,76.99 53.96,76.86 55.75,76.52 C58.77,75.95 59.00,75.63 59.00,71.95 L 59.00 68.00 L 73.02 68.00 C86.24,68.00 87.26,68.14 90.99,70.49 C99.34,75.76 100.46,85.32 93.63,92.84 C90.41,96.37 85.48,98.00 78.00,98.00 C74.23,98.00 69.32,98.72 66.88,99.63 C64.47,100.52 58.00,101.53 52.50,101.88 L 42.50 102.50 L 42.20 113.00 C41.83,126.01 42.37,129.10 45.75,133.11 C48.39,136.25 55.57,140.24 57.50,139.65 C58.07,139.47 58.62,134.16 58.78,127.17 ZM 15.50 133.00 C15.16,132.45 13.33,132.00 11.44,132.00 C9.55,132.00 8.00,132.45 8.00,133.00 C8.00,133.55 9.83,134.00 12.06,134.00 C14.51,134.00 15.87,133.60 15.50,133.00 ZM 229.75 112.25 C230.55,111.20 231.00,107.12 231.00,100.79 L 231.00 90.97 L 228.25 91.01 C226.74,91.04 224.08,90.78 222.35,90.43 C217.65,89.49 215.00,92.55 215.00,98.93 C215.00,103.10 215.42,104.18 217.71,105.99 C220.33,108.04 221.35,108.11 225.34,106.47 C226.86,105.85 227.12,106.13 226.84,108.11 C226.47,110.74 222.59,111.99 220.68,110.08 C219.46,108.86 214.99,108.60 215.02,109.75 C215.11,114.46 226.56,116.40 229.75,112.25 ZM 198.78 104.68 C201.17,102.28 201.50,101.19 201.50,95.56 C201.50,90.16 201.12,88.76 199.08,86.58 C196.90,84.26 195.91,84.00 189.33,84.00 L 182.00 84.00 L 182.00 95.33 C182.00,101.57 182.34,107.01 182.75,107.43 C183.16,107.85 186.32,108.01 189.78,107.80 C194.98,107.47 196.52,106.94 198.78,104.68 ZM 210.79 99.24 C211.08,91.01 211.08,91.00 208.54,91.00 C206.04,91.00 206.00,91.11 206.00,98.83 C206.00,107.04 206.40,108.26 208.95,107.77 C210.17,107.54 210.56,105.73 210.79,99.24 ZM 240.00 99.50 C240.00,91.67 239.84,91.00 238.00,91.00 C236.17,91.00 236.00,91.67 236.00,98.83 C236.00,106.84 236.34,108.00 238.67,108.00 C239.67,108.00 240.00,105.92 240.00,99.50 ZM 253.00 106.00 C253.00,104.89 252.33,104.00 251.50,104.00 C249.23,104.00 249.43,95.16 251.75,93.36 C253.42,92.06 253.42,91.95 251.75,90.95 C250.79,90.37 250.00,88.80 250.00,87.45 C250.00,86.10 249.75,85.00 249.43,85.00 C247.83,85.00 245.00,87.26 245.00,88.54 C245.00,89.34 244.55,90.00 244.00,90.00 C243.45,90.00 243.00,90.90 243.00,92.00 C243.00,93.10 243.45,94.00 244.00,94.00 C244.55,94.00 245.00,96.44 245.00,99.43 C245.00,105.49 246.63,108.00 250.57,108.00 C252.33,108.00 253.00,107.45 253.00,106.00 ZM 264.84 106.76 C265.83,105.77 266.25,105.79 266.93,106.88 C267.39,107.63 268.38,108.04 269.13,107.79 C271.18,107.11 270.42,92.93 268.24,91.25 C264.61,88.45 254.37,91.55 256.40,94.84 C257.28,96.26 260.00,96.38 260.00,95.00 C260.00,94.45 261.35,94.00 263.00,94.00 C267.71,94.00 266.88,96.84 261.93,97.63 C255.42,98.67 253.17,102.32 256.65,106.17 C258.55,108.27 263.01,108.59 264.84,106.76 ZM 279.00 96.00 C279.00,84.67 278.89,84.00 277.00,84.00 C275.12,84.00 275.00,84.67 275.00,95.33 C275.00,106.78 275.26,108.00 277.67,108.00 C278.70,108.00 279.00,105.33 279.00,96.00 ZM 296.44 106.06 C298.27,104.04 297.83,102.00 295.56,102.00 C294.84,102.00 293.69,102.67 293.02,103.48 C291.55,105.24 288.00,103.82 288.00,101.46 C288.00,100.36 289.34,100.00 293.50,100.00 C298.73,100.00 299.00,99.87 299.00,97.45 C299.00,93.89 294.82,90.00 291.00,90.00 C284.74,90.00 280.80,98.02 284.07,104.12 C286.18,108.08 293.57,109.23 296.44,106.06 ZM 314.83 106.40 C316.54,105.21 317.04,104.02 316.81,101.65 C316.54,98.87 315.96,98.33 311.82,97.00 C309.25,96.18 306.82,95.17 306.43,94.77 C305.07,93.39 309.14,92.74 311.44,93.97 C312.70,94.64 314.58,95.04 315.61,94.84 C317.36,94.50 317.34,94.34 315.24,92.24 C310.83,87.83 301.56,90.39 302.19,95.85 C302.45,98.05 303.35,98.78 307.50,100.16 C310.25,101.07 312.50,102.42 312.50,103.16 C312.50,105.10 308.52,105.37 306.70,103.56 C305.19,102.04 302.00,102.38 302.00,104.05 C302.00,105.65 306.46,108.00 309.50,108.00 C311.18,108.00 313.58,107.28 314.83,106.40 ZM 67.28 95.13 C70.46,93.87 74.92,91.41 77.19,89.67 C81.95,86.01 89.60,77.26 88.76,76.43 C88.45,76.12 86.02,76.96 83.35,78.29 C69.14,85.41 52.64,88.55 33.93,87.72 L 21.00 87.15 L 21.00 92.65 L 21.00 98.15 L 41.25 97.79 C59.56,97.47 62.05,97.22 67.28,95.13 ZM 210.81 85.74 C211.06,84.45 210.48,84.00 208.57,84.00 C206.13,84.00 205.13,85.80 206.70,87.37 C207.91,88.57 210.46,87.56 210.81,85.74 ZM 240.00 86.00 C240.00,84.67 239.33,84.00 238.00,84.00 C236.07,84.00 235.29,85.96 236.67,87.33 C238.04,88.71 240.00,87.93 240.00,86.00 ZM 15.00 86.00 C15.00,85.45 13.88,85.00 12.50,85.00 C10.59,85.00 10.00,84.48 10.00,82.80 C10.00,81.13 9.72,80.88 8.84,81.76 C7.97,82.63 7.97,83.26 8.83,84.30 C9.47,85.06 9.69,85.98 9.32,86.34 C8.96,86.70 10.09,87.00 11.83,87.00 C13.57,87.00 15.00,86.55 15.00,86.00 ZM 151.66 65.43 C153.73,63.36 154.10,62.26 153.59,59.71 C152.77,55.61 152.18,55.10 145.84,53.04 C139.38,50.93 137.90,48.00 143.30,48.00 C145.20,48.00 147.32,48.67 148.00,49.50 C150.90,52.99 154.07,50.28 151.56,46.46 C150.18,44.34 149.19,44.00 144.48,44.00 C132.23,44.00 131.59,54.02 143.63,57.25 C148.62,58.58 149.93,60.17 147.99,62.51 C146.25,64.61 142.64,64.36 140.50,62.00 C138.20,59.46 135.00,59.37 135.00,61.85 C135.00,67.68 146.86,70.23 151.66,65.43 ZM 170.06 66.97 C172.99,65.40 175.23,60.32 174.49,56.94 C173.72,53.45 169.66,50.00 166.32,50.00 C163.17,50.00 158.41,52.49 157.62,54.54 C156.58,57.25 156.93,62.52 158.25,64.18 C161.09,67.75 166.31,68.98 170.06,66.97 ZM 182.78 55.74 L 183.06 44.00 L 180.53 44.00 L 178.00 44.00 L 178.00 55.33 C178.00,61.57 178.32,66.98 178.70,67.37 C179.09,67.75 180.10,67.94 180.95,67.77 C182.23,67.53 182.55,65.39 182.78,55.74 ZM 196.80 66.80 C197.73,65.87 198.27,65.87 199.20,66.80 C202.16,69.76 203.00,68.13 203.00,59.50 C203.00,51.67 202.84,51.00 201.00,51.00 C199.28,51.00 199.00,51.67 199.00,55.78 C199.00,61.82 196.75,65.47 193.94,63.97 C192.35,63.12 192.00,61.85 192.00,56.96 C192.00,51.67 191.78,51.00 190.00,51.00 C188.18,51.00 188.00,51.67 188.00,58.45 C188.00,64.49 188.33,66.09 189.75,66.92 C192.13,68.31 195.35,68.25 196.80,66.80 ZM 220.93 65.37 C222.07,63.92 223.00,62.34 223.00,61.87 C223.00,60.35 219.14,60.94 218.21,62.59 C217.68,63.54 216.36,64.04 214.91,63.84 C212.77,63.54 212.50,62.99 212.50,59.00 C212.50,54.83 212.70,54.48 215.25,54.18 C216.76,54.01 218.00,54.35 218.00,54.93 C218.00,56.26 221.67,56.35 222.48,55.04 C223.61,53.21 219.13,50.00 215.45,50.00 C208.74,50.00 204.67,57.78 208.07,64.12 C210.43,68.54 217.87,69.25 220.93,65.37 ZM 231.00 59.50 C231.00,51.67 230.84,51.00 229.00,51.00 C227.16,51.00 227.00,51.67 227.00,59.50 C227.00,67.33 227.16,68.00 229.00,68.00 C230.84,68.00 231.00,67.33 231.00,59.50 ZM 248.06 66.97 C249.11,66.40 250.69,64.57 251.55,62.90 C254.96,56.32 249.94,49.35 242.51,50.34 C240.10,50.66 237.82,51.73 236.76,53.05 C234.72,55.57 234.43,61.90 236.25,64.18 C239.09,67.75 244.31,68.98 248.06,66.97 ZM 261.00 60.99 C261.46,55.08 261.71,54.47 263.89,54.16 C267.10,53.71 267.97,55.43 267.98,62.25 C268.00,67.33 268.23,68.00 270.00,68.00 C271.82,68.00 272.00,67.33 272.00,60.57 C272.00,50.75 269.06,47.76 262.73,51.14 C261.30,51.91 260.48,51.95 260.25,51.25 C260.06,50.68 259.03,50.44 257.95,50.72 C256.23,51.17 256.00,52.14 256.00,58.95 C256.00,67.04 256.41,68.26 258.95,67.78 C260.10,67.56 260.63,65.79 261.00,60.99 ZM 289.13 65.87 C291.10,63.90 291.13,63.65 289.56,62.78 C288.33,62.09 287.32,62.31 285.93,63.57 C284.09,65.23 283.90,65.22 282.00,63.50 C278.84,60.64 279.58,60.00 286.02,60.00 L 292.04 60.00 L 291.39 57.25 C289.82,50.61 283.72,48.07 278.76,51.98 C275.80,54.30 274.88,57.98 276.12,62.47 C277.61,67.87 285.16,69.84 289.13,65.87 ZM 307.69 65.83 C311.94,61.83 309.76,58.08 302.25,56.52 C300.46,56.15 299.00,55.41 299.00,54.89 C299.00,53.27 302.17,52.62 304.12,53.84 C306.15,55.11 309.00,55.39 309.00,54.33 C309.00,52.22 305.33,50.00 301.85,50.00 C298.27,50.00 294.00,52.60 294.00,54.78 C294.00,56.93 297.45,59.99 300.54,60.57 C304.50,61.32 305.75,62.65 304.07,64.33 C303.19,65.21 302.24,65.10 300.16,63.91 C297.28,62.25 293.56,62.72 294.79,64.59 C297.26,68.35 304.28,69.03 307.69,65.83 ZM 95.00 47.09 C95.00,44.00 90.73,33.43 87.54,28.63 C80.77,18.42 69.63,11.53 57.36,9.95 C46.19,8.51 21.00,8.75 21.00,10.29 C21.00,12.99 24.08,23.24 26.11,27.28 C28.78,32.61 35.75,42.00 37.03,42.00 C37.58,42.00 38.00,38.44 38.00,33.87 L 38.00 25.73 L 47.75 26.21 C62.65,26.93 70.76,31.58 75.80,42.31 L 77.96 46.90 L 84.23 47.26 C87.68,47.45 91.51,47.70 92.75,47.81 C93.99,47.91 95.00,47.59 95.00,47.09 ZM 231.00 46.00 C231.00,44.67 230.33,44.00 229.00,44.00 C227.67,44.00 227.00,44.67 227.00,46.00 C227.00,47.33 227.67,48.00 229.00,48.00 C230.33,48.00 231.00,47.33 231.00,46.00 ZM 141.00 18.44 C141.00,16.50 141.52,16.00 143.50,16.00 C144.88,16.00 146.00,15.55 146.00,15.00 C146.00,14.45 144.88,14.00 143.50,14.00 C141.39,14.00 141.00,13.53 141.00,11.00 C141.00,9.35 140.55,8.00 140.00,8.00 C139.45,8.00 139.00,9.35 139.00,11.00 C139.00,13.67 138.67,14.00 136.00,14.00 C134.35,14.00 133.00,14.45 133.00,15.00 C133.00,15.55 134.35,16.00 136.00,16.00 C138.68,16.00 139.00,16.33 139.00,19.06 C139.00,20.84 139.42,21.86 140.00,21.50 C140.55,21.16 141.00,19.78 141.00,18.44 ZM 159.00 19.00 C159.00,16.33 159.33,16.00 162.00,16.00 C163.65,16.00 165.00,15.55 165.00,15.00 C165.00,14.45 163.65,14.00 162.00,14.00 C159.33,14.00 159.00,13.67 159.00,11.00 C159.00,9.35 158.55,8.00 158.00,8.00 C157.45,8.00 157.00,9.35 157.00,11.00 C157.00,13.53 156.61,14.00 154.50,14.00 C153.12,14.00 152.00,14.45 152.00,15.00 C152.00,15.55 153.12,16.00 154.50,16.00 C156.61,16.00 157.00,16.47 157.00,19.00 C157.00,20.65 157.45,22.00 158.00,22.00 C158.55,22.00 159.00,20.65 159.00,19.00 ZM 180.00 18.44 C180.00,16.50 180.52,16.00 182.50,16.00 C183.88,16.00 185.00,15.55 185.00,15.00 C185.00,14.45 183.88,14.00 182.50,14.00 C180.39,14.00 180.00,13.53 180.00,11.00 C180.00,9.35 179.55,8.00 179.00,8.00 C178.45,8.00 178.00,9.35 178.00,11.00 C178.00,13.67 177.67,14.00 175.00,14.00 C173.35,14.00 172.00,14.45 172.00,15.00 C172.00,15.55 173.35,16.00 175.00,16.00 C177.68,16.00 178.00,16.33 178.00,19.06 C178.00,20.84 178.42,21.86 179.00,21.50 C179.55,21.16 180.00,19.78 180.00,18.44 ZM 219.97 101.95 C217.60,97.51 221.01,92.26 224.75,94.61 C228.27,96.82 226.93,104.00 223.00,104.00 C221.94,104.00 220.58,103.08 219.97,101.95 ZM 187.00 96.00 L 187.00 88.00 L 190.96 88.00 C195.64,88.00 197.00,89.79 197.00,95.93 C197.00,100.89 194.30,104.00 190.00,104.00 L 187.00 104.00 L 187.00 96.00 ZM 260.32 103.40 C259.65,101.64 261.51,100.04 264.25,100.02 C266.26,100.00 266.56,102.04 264.80,103.80 C263.12,105.48 261.05,105.29 260.32,103.40 ZM 288.19 96.25 C288.59,94.14 292.95,93.30 294.07,95.11 C295.27,97.05 294.22,98.00 290.87,98.00 C288.54,98.00 287.93,97.60 288.19,96.25 ZM 163.05 62.57 C162.40,61.78 162.01,59.64 162.18,57.82 C162.43,55.23 163.01,54.43 164.81,54.17 C167.90,53.74 170.00,55.66 170.00,58.92 C170.00,63.49 165.70,65.75 163.05,62.57 ZM 241.05 62.57 C240.40,61.78 240.01,59.64 240.18,57.82 C240.43,55.23 241.01,54.43 242.81,54.17 C245.90,53.74 248.00,55.66 248.00,58.92 C248.00,63.49 243.70,65.75 241.05,62.57 ZM 280.62 57.20 C280.35,56.76 280.49,55.82 280.93,55.11 C282.05,53.30 286.41,54.14 286.81,56.25 C287.07,57.60 286.46,58.00 284.13,58.00 C282.47,58.00 280.90,57.64 280.62,57.20 Z" fill="rgb(253,251,253)"/>
</g>
</svg>